# xmcd CD database file
#
# Track frame offsets:
#	150
#	15709
#	34189
#	50850
#	67473
#	83959
#	100519
#	115862
#	134778
#	149878
#	168068
#	184881
#	206635
#	218941
#
# Disc length: 3170 seconds
#
# Revision: 1
# Processed by: cddbd v1.5.2PL0 Copyright (c) Steve Scherf et al.
# Submitted via: CDex 1.70beta2
#
DISCID=e00c600e
DTITLE=Karen Souza - Essentials II
DYEAR=2014
DGENRE=Jazz
TTITLE0=The Way It Is
TTITLE1=Wicked Game
TTITLE2=Everyday Is Like Sunday
TTITLE3=Dreams
TTITLE4=Think It For A Minute
TTITLE5=Skin Trade
TTITLE6=Can't Help Falling In Love
TTITLE7=Everybody Hurts
TTITLE8=Never Tear Us Apart
TTITLE9=Twist In My Sobriety
TTITLE10=The Sound Of Violence
TTITLE11=Shape Of My Heart
TTITLE12=Never Gonna Give You Up
TTITLE13=Have You Ever Seen The Rain  [Live In Japan]
EXTD=YEAR: 2014
EXTT0=
EXTT1=
EXTT2=
EXTT3=
EXTT4=
EXTT5=
EXTT6=
EXTT7=
EXTT8=
EXTT9=
EXTT10=
EXTT11=
EXTT12=
EXTT13=
PLAYORDER=
